<?xml version="1.0" encoding="UTF-8"?><svg id="Layer_1" xmlns="http://www.w3.org/2000/svg" viewBox="0 0 180 64.15"><defs><style>.cls-1{fill:#fff;}</style></defs><g id="Logo"><path class="cls-1" d="M67.03,31.64c0,4.13-1.42,7.92-3.8,10.92-3.22,4.05-8.19,6.65-13.76,6.65-3.03,0-5.89-.77-8.38-2.12-5.47-2.98-9.19-8.77-9.19-15.44,0-4.03,1.35-7.99,3.64-10.89,.75-.95,1.6-1.79,2.53-2.47,.37-.27,1.11-.42,1.79-.51,.36-.05,.71-.09,.98-.13,0,0,0,0,0,0,.06-.01,.12-.02,.17-.03,.72-.11,1.7-.24,2.75-.35,2.01-.21,4.3-.39,5.69-.38,1.33,0,3.66,.13,5.5,.31,.65,.07,1.23,.14,1.7,.22,1.13,.19,3.49,.47,4.46,1.09,3.57,2.33,5.91,7.91,5.91,13.14Z"/><path class="cls-1" d="M48.39,9.21c-.39,0-.5-.49-.5-.49l-1.64-7.82c-.26-1.22-1.13-.85-1.13-.85l-4.95,1.16c-.45,.33-.28,.96-.28,.96l1.59,7.22c.18,1.1-.15,1.27-.15,1.27-5.32,1.93-9.95,6.74-9.95,6.74l2.42,1.77c6.77-7,14.66-7.09,14.66-7.09,5.85-.35,10.07,1.79,10.19,1.85h0s1.43-2.41,1.43-2.41c-5.24-2.5-11.7-2.31-11.7-2.31Z"/><path class="cls-1" d="M60.1,11.52s-.38,1.28-.8,2.04c0,0-.62,1.2-1.23,1.99l.6-1.61,1.43-2.42Z"/><path class="cls-1" d="M31.39,17.4s1.23,1.6,3.56,3.01l-1.15-1.24-2.42-1.77Z"/><path class="cls-1" d="M58.66,13.94l-.6,1.61c-4.97-2.09-9.95-1.6-9.95-1.6-8.35,.88-13.16,6.46-13.16,6.46l-1.14-1.24c6.77-7,14.66-7.09,14.66-7.09,5.85-.35,10.07,1.79,10.19,1.85h0Z"/><path class="cls-1" d="M65.15,43.88l-2.28,2.12c-1.69,1.69-6.1,3.56-6.1,3.56-3.66,1.57-7.74,1.47-7.74,1.47-4.35,0-8.46-1.78-8.98-2.02l-1.56,2.43s.07,.03,.11,.05c2.1,1,7.06,2.11,7.06,2.11,2.04,.3,4.53,.36,4.53,.36,.71,.08,.75,.71,.75,.71l1.05,5.64,.49,2.36c.28,1.01,.96,.85,.96,.85l5.05-1.02c.56-.07,.44-1.26,.44-1.26l-1.55-7.43c-.25-.86,.17-1.17,.17-1.17,.23-.1,2.4-1.29,2.4-1.29,2.16-.88,4.61-2.9,4.61-2.9,1.18-.96,3.01-2.86,3.01-2.86l-2.4-1.71Z"/><path class="cls-1" d="M38.48,51.44s.07,.03,.11,.05l-.11-.05Z"/><path class="cls-1" d="M65.15,43.88l-2.28,2.12c-1.69,1.69-6.1,3.56-6.1,3.56-3.66,1.57-7.74,1.47-7.74,1.47-4.35,0-8.46-1.78-8.98-2.02l.58-.91,2.97,.96c2.26,.7,4.28,.8,4.28,.8,10.29,.51,16.21-6.54,16.21-6.54l1.07,.56Z"/><g><path class="cls-1" d="M27.52,28.92v18.25h-7.79V29.49c0-3.23-2.31-4.92-5.95-4.92-4.15,0-6,1.69-6,4.92v17.68H0V28.92c0-6.82,5.43-10.97,13.79-10.97s13.74,4.15,13.74,10.97Z"/><g><path class="cls-1" d="M67.68,17.73h8.61l7.59,18.71,7.43-18.71h8.46l-12.4,28.7h-7.23l-12.46-28.7Z"/><path class="cls-1" d="M129.95,35.97c0,6.82-5.33,10.97-13.63,10.97s-13.69-4.15-13.69-10.97V17.73h7.79v17.68c0,3.23,1.74,4.92,5.89,4.92,3.64,0,5.84-1.69,5.84-4.92V17.73h7.79v18.25Z"/><path class="cls-1" d="M134.79,28.18c0-6.82,4.92-10.97,13.28-10.97,3.9,0,7.28,1.44,9.33,3.74,2.05-2.31,5.43-3.74,9.38-3.74,8.3,0,13.22,4.15,13.22,10.97v18.25h-7.79V28.75c0-3.23-1.79-4.92-5.43-4.92-4.15,0-5.48,1.69-5.48,4.92v17.68h-7.79V28.75c0-3.23-1.79-4.92-5.43-4.92-4.15,0-5.49,1.69-5.49,4.92v17.68h-7.79V28.18Z"/></g></g><g><path class="cls-1" d="M104.94,53.55c0-2.74,2.18-4.43,5.71-4.43s5.71,1.69,5.71,4.43v2.47h-8.28v.64c-.02,1.3,.91,1.79,2.58,1.79,1.81,0,2.55-.64,2.55-1.36v-.19h3.09v.33c0,1.96-2.06,3.83-5.64,3.83s-5.71-1.67-5.71-4.41v-3.11Zm8.28,.45v-.41c0-1.22-.87-1.85-2.57-1.85s-2.6,.58-2.62,1.85v.41h5.19Z"/><path class="cls-1" d="M129.97,53.53v7.33h-3.13v-7.11c0-1.3-.93-1.98-2.39-1.98-1.67,0-2.41,.68-2.41,1.98v7.11h-3.13v-7.33c0-2.74,2.18-4.41,5.54-4.41s5.52,1.67,5.52,4.41Z"/><path class="cls-1" d="M132.6,53.55c0-2.74,2.18-4.43,5.71-4.43s5.71,1.69,5.71,4.43v2.47h-8.28v.64c-.02,1.3,.91,1.79,2.58,1.79,1.81,0,2.55-.64,2.55-1.36v-.19h3.09v.33c0,1.96-2.06,3.83-5.64,3.83s-5.71-1.67-5.71-4.41v-3.11Zm8.28,.45v-.41c0-1.22-.87-1.85-2.57-1.85s-2.6,.58-2.62,1.85v.41h5.19Z"/><path class="cls-1" d="M153.39,51.84c-.35-.04-.99-.06-1.42-.06-1.67,0-2.27,.37-2.27,1.57v7.52h-3.13v-7.77c0-2.74,1.52-3.97,4.88-3.97,.7,0,1.36,.02,1.94,.08v2.64Z"/><path class="cls-1" d="M166.16,53.53v6.63c0,2.6-2.2,4-5.6,4-3.63,0-5.56-1.24-5.56-3.44v-.19h3.07c0,.54,.76,.97,2.49,.97,1.55,0,2.47-.43,2.47-1.57v-.95c-.91,.49-2.14,.78-3.48,.78-3.32,0-4.68-1.42-4.68-4.18v-2.06c0-2.74,2.14-4.41,5.67-4.41s5.62,1.67,5.62,4.41Zm-3.13,.23c0-1.3-.84-1.98-2.49-1.98s-2.53,.68-2.53,1.98v1.65c0,1.13,.6,1.61,2.2,1.61,1.05,0,2-.16,2.82-.6v-2.66Z"/><path class="cls-1" d="M169.02,60.53h3.07c0,.54,.76,.97,2.47,.97,1.55,0,2.43-.41,2.43-1.55v-1.3c-.95,.72-2.39,1.15-3.79,1.15-2.93,0-4.31-.89-4.31-3.3v-7.19h3.13v6.39c0,.97,.54,1.34,2.12,1.34,1.05,0,2.08-.27,2.72-.74v-6.98h3.13v10.79c0,2.6-2.02,4.04-5.44,4.04-3.69,0-5.54-1.24-5.54-3.44v-.19Z"/></g></g></svg>